<svg xmlns="http://www.w3.org/2000/svg" width="282" height="278" viewBox="0 0 282 278">
    <path fill="#489C8E" fill-rule="nonzero" d="M235.176 89.039l11.1 18.974.243.334c1.734 1.978 4.666 2.218 6.72.548 1.656-1.352 2.163-3.668 1.35-5.655l-9.674-16.473c3.267-.783 6.406-1.412 9.686-2.054l12.45 21.412.242.333c1.734 1.978 4.666 2.218 6.72.548 1.656-1.351 2.163-3.667 1.35-5.655l-10.692-18.37c4.407-.741 8.826-1.34 13.181-1.864 2.588-.44 4.428-2.942 3.988-5.53l-.076-.065c-.492-2.37-2.548-3.965-4.89-3.973-4.292.447-8.634 1.11-12.913 1.698l4.678-16.309c.341-2.585-1.29-4.998-3.963-5.545-2.163-.378-4.33.805-5.144 2.864l-6.063 20.76-10.596 2.204 5.194-17.702c.342-2.586-1.289-4.998-3.963-5.545-2.162-.379-4.33.805-5.144 2.863l-6.787 23.024c-47.161 12.644-91.887 36.077-129.832 60.761l.44-1.458c6.819-28.35 21.521-67.185 52.523-90.907.539-.331 1-.727 1.463-1.122l12.86 13.923c1.746 2.118 4.677 2.359 6.732.688 2.118-1.747 2.359-4.678.688-6.732l-.319-.398-11.979-12.793c2.835-1.668 5.683-3.195 8.62-4.516l15.92 17.275c1.747 2.118 4.678 2.359 6.733.688 2.118-1.747 2.359-4.678.688-6.732l-.319-.398-13.407-14.514c2.217-.62 4.37-1.163 6.6-1.642 2.6-.298 4.516-2.737 4.217-5.338-.298-2.6-2.737-4.516-5.337-4.217-2.383.35-4.818.918-7.176 1.55l1.087-18.408c.482-2.597-1.29-4.998-3.963-5.545-2.674-.546-4.998 1.29-5.545 3.964-.04.358-.156.652-.054.998l-1.499 22.632c-3.346 1.5-6.617 3.063-9.786 4.973l1.246-19.842c.482-2.597-1.29-4.997-3.964-5.544-2.674-.547-4.997 1.289-5.544 3.963-.04.358-.156.652-.055.998l-1.634 25.129.076.064c-.36.741-.44 1.458-.52 2.175l-1.27.892c-33.62 25.442-49.392 66.642-56.639 96.591a213.507 213.507 0 0 1-3.023 11.693c-13.398 9.122-25.861 18.375-37.094 27.095-58.733 45.881-97.718 90.319-98.18 90.714-1.49 1.621-1.563 4.04-.34 5.85l.726 1.001c2.004 1.812 4.963 1.554 6.775-.45.462-.396 38.804-44.067 96.805-89.388a695.388 695.388 0 0 1 27.123-20.19c-10.361 34.907-22.077 57.581-37.726 73.43-19.028 19.41-44.517 29.874-81.08 43.578-2.474.927-3.79 3.739-2.8 6.137l.727 1c1.223 1.81 3.628 2.523 5.615 1.71 70.921-26.647 102.79-42.07 127.842-134.62 39.282-26.435 86.64-52.227 136.582-65.54z"/>
</svg>
