<svg xmlns="http://www.w3.org/2000/svg" width="171" height="265" viewBox="0 0 171 265">
    <path fill="#489C8E" fill-rule="nonzero" d="M242.392-17.4L234.138.699c-2.008-3.122-4.066-6.158-6.274-8.934l9.358-20.808c1.127-2.352-.002-5.198-2.353-6.324-2.352-1.127-5.197.001-6.324 2.353l-7.655 17.058c-3.174-3.103-5.275-4.662-5.485-4.899-2.302-1.213-5.257-.495-6.607 1.844-1.15 1.991-.628 4.487.99 5.883 1.843 1.41 3.498 2.943 5.19 4.613l-18.622 6.453c-2.472.882-3.849 3.667-2.967 6.14.882 2.472 3.667 3.848 6.139 2.966l22.237-7.715c1.738 2.39 3.55 5.052 5.47 8.124l-16.472 5.732c-2.472.882-3.849 3.666-2.967 6.139.882 2.472 3.667 3.849 6.14 2.967l17.801-6.235.8 1.616c16.089 35.732 10.522 76.974 3.264 105.346a669.126 669.126 0 0 0-5.815 24.472c-27.294-34.927-53.3-71.881-68.369-102.982l16.333-16.09c1.906-1.9 1.907-4.902.005-6.809-1.901-1.906-4.903-1.907-6.81-.005L157.38 35.248c-1.375-3.22-2.663-6.388-3.778-9.456L170.743 8.9c1.907-1.902 1.908-4.904.006-6.81-1.902-1.906-4.903-1.907-6.81-.005l-13.48 13.348c-.742-3.315-1.433-6.717-1.902-10.105.024-2.642-2.037-4.871-4.68-4.895-2.641-.025-4.87 2.037-4.895 4.679l.157 1.13c.391 3.92 1.143 7.819 2.118 11.73l-19.273-.62c-2.591-.11-4.87 2.038-4.982 4.63-.11 2.592 2.038 4.871 4.63 4.982l22.447.72c1.115 3.069 2.353 6.324 3.628 9.716l-18.156-.552c-2.592-.111-4.872 2.037-4.982 4.629-.111 2.592 2.037 4.871 4.629 4.982l22.807.697c16.343 34.493 45.47 75.443 75.245 113.071-1.054 5.627-1.822 10.957-2.49 16.114-1.26-1.42-2.431-2.79-3.74-4.122-45.805-50.464-81.743-88.418-107.444-113.302l-.047-.72 5.455-24.448c.248-2.628-1.627-4.98-4.292-5.365-2.182-.22-4.372 1.172-5.039 3.327L105.3 51.252a464.521 464.521 0 0 0-7.98-7.378l5.06-22.366c.248-2.629-1.627-4.982-4.292-5.366-2.182-.22-4.371 1.172-5.038 3.327l-3.86 17.286c-2.558-2.17-4.733-4.003-6.921-5.613-2.152-1.473-5.144-.89-6.617 1.26-1.373 1.98-1 4.735.828 6.368 2.657 1.996 5.598 4.502 8.799 7.159L67.805 56.394c-2.472.882-3.675 3.766-2.743 6.152.882 2.472 3.766 3.676 6.152 2.744.323-.16.596-.233.833-.443l.473-.42 19.986-12.016c2.298 2.02 4.756 4.362 7.214 6.705l-15.011 9c-2.472.882-3.676 3.767-2.744 6.152.882 2.473 3.767 3.676 6.152 2.744.324-.16.597-.233.833-.443l.474-.42 17.237-10.255c32.555 31.613 77.278 79.95 116.639 123.576l-.141 3.844c-15.676-6.048-32.965-12.104-51.67-17.707-15.76-15.103-30.603-29.793-43.072-42.996l10.67-17.28c1.436-2.289.668-5.157-1.62-6.594-2.202-1.387-5.107-.755-6.494 1.447l-.187.123-9.11 15.179c-2.357-2.516-4.492-5.019-6.553-7.248l12.27-20.052c1.213-2.301.357-5.22-2.03-6.483-2.13-1.114-4.761-.555-6.135 1.424l-10.72 17.366c-2.677-3.162-5.008-6.124-7.13-8.85-1.291-2.363-4.202-3.12-6.565-1.828-2.362 1.292-3.12 4.203-1.828 6.566.124.186.333.423.37.56.123.186.21.236.333.423 1.615 2.202 3.49 4.555 5.451 6.958l-8.306 1.786c-13.71-15.652-28.177-31.395-43.017-46.891l.013-.223.05-.087 7.883-23.854c.47-2.615-1.167-5.178-3.782-5.648a4.673 4.673 0 0 0-5.222 2.643l-6.449 19.37c-2.494-2.479-4.889-5.131-7.383-7.61l7.593-22.752c.47-2.615-1.168-5.178-3.783-5.648a4.673 4.673 0 0 0-5.221 2.643l-5.973 18.145c-2.111-2.143-4.223-4.286-6.384-6.342-1.865-1.77-4.867-1.77-6.723.045l-.05.086c-1.856 1.815-1.857 4.817-.042 6.673 2.53 2.616 5.075 5.009 7.57 7.488L2.71 62.343c-2.276 1.342-3.083 4.34-1.692 6.53 1.133 2.038 3.548 2.855 5.747 2.046L27.1 61.298c2.321 2.38 4.729 4.809 6.964 7.138l-15.537 7.311c-2.276 1.342-3.083 4.34-1.692 6.53 1.132 2.039 3.547 2.856 5.747 2.047l18.532-8.7c13.705 14.264 26.813 28.76 39.574 43.056-2.239 1.478-2.773 4.403-1.295 6.643 1.023 1.629 2.991 2.42 4.89 2.13l3.402-.692c2.395 2.653 4.74 5.392 7.084 8.131l-.36.023c-2.706.286-4.589 2.547-4.303 5.253.286 2.705 2.547 4.588 5.252 4.302l1.043-.206 5.401-1.154c5.355 6.325 10.76 12.563 15.942 18.788-11.723-2.496-23.782-4.609-36.041-6.375l-6.34-22.02c-.882-2.472-3.667-3.849-6.139-2.967l-.05.087c-2.249.895-3.462 3.197-3.063 5.506l5.118 17.735-10.277-1.2-6.253-21.969c-.882-2.472-3.667-3.85-6.14-2.967l-.05.087c-2.248.895-3.462 3.197-3.063 5.506l5.302 18.418-12.263-.96c-2.679-.161-4.945 1.764-5.156 4.529-.21 2.765 1.765 4.944 4.53 5.155 3.434.251 6.832.365 10.217.703l-9.71 16.218c-1.386 2.201-.79 4.97 1.46 6.27.087.05.087.05.124.187 1.855 1.186 4.25.837 5.82-.681.287-.297.573-.593.687-.99l12.01-20.201c3.471.387 6.856.725 10.24 1.062l-9.76 16.305c-1.386 2.202-.79 4.97 1.461 6.27.087.05.087.05.123.187 1.856 1.187 4.251.837 5.82-.681.287-.297.574-.593.687-.99l11.81-19.855c16.523 2.381 32.783 5.418 48.334 9.084 26.758 32.654 50.238 63.185 69.409 89.38-7.278-3.394-14.933-5.735-22.828-7.06-21.207-3.469-37.141-15.67-48.334-28.484l12.461-15.784c1.473-2.151.855-5.28-1.347-6.666-2.028-1.287-4.51-.988-6.044.667l-11.101 14.03c-1.985-2.763-3.97-5.526-5.558-8.175l14.595-18.478c1.473-2.152.854-5.28-1.347-6.667-2.029-1.287-4.511-.988-6.044.668l-12.261 15.437c-2.977-5.644-4.398-9.583-4.485-9.633-.559-2.632-3.243-4.182-5.839-3.486-2.632.559-4.182 3.243-3.486 5.839l.342 1.006c1.239 3.255 2.7 6.524 4.262 9.62l-18.364 1.406c-2.545.609-4.219 3.107-3.66 5.74.45 2.221 2.378 3.681 4.523 3.765l22.695-1.908c1.711 2.835 3.77 5.871 5.914 8.957l-19.147 1.763c-2.642-.025-4.871 2.037-4.895 4.679-.025 2.642 2.037 4.871 4.679 4.895l1.13-.156 25.003-2.307.05-.087.31.063c12.351 14.406 30.2 28.291 54.779 32.32 12.419 2.09 25.243 7.877 37.118 15.31 28.031 39.047 44.378 64.535 44.747 65.095 1.342 2.276 4.353 2.86 6.68 1.431l.76-.716c1.619-1.605 1.903-4.097.67-5.963-.369-.56-10.568-16.494-28.76-42.585 12.543 10.474 24.45 21.852 35.273 34.105 1.715 2.03 4.703 2.254 6.733.539l.286-.297c1.807-1.728 1.93-4.543.302-6.523a299.875 299.875 0 0 0-32.232-31.772c-8.686-7.556-18.082-14.481-27.827-20.801-19.441-26.928-44.373-60.144-73.535-96.034 8.078 2.009 15.87 4.313 23.624 6.481 20.676 19.79 42.627 39.968 62.467 58.005 8.64 26.234 26.257 47.721 51.147 76.41 1.715 2.03 4.703 2.254 6.783.452l.237-.21c1.806-1.728 1.893-4.68.215-6.573-18.017-20.794-32.02-37.539-41.333-54.81 27.933 25.02 48.889 43.123 51.1 45.092 1.916 1.683 4.794 1.498 6.514-.28l.286-.297a4.78 4.78 0 0 0-.49-6.75c-.73-.537-29.816-25.759-66.185-58.765-.196-.46-.393-.92-.453-1.416-2.502-9.066-4.048-18.388-4.155-27.803l10.932 4.465c37.743 42.228 66.62 75.412 67.372 76.309 1.715 2.03 4.703 2.253 6.783.452l.236-.21c1.806-1.729 1.894-4.68.216-6.573-.383-.337-22.46-25.9-53.315-60.457 8.281 3.857 16.079 7.551 23.12 11.155 20.735 23.287 35.835 38.933 37.896 41.162 1.815 1.856 4.904 1.907 6.796.229l.05-.087c1.857-1.815 1.858-4.816.092-6.76-.383-.336-7.926-8.27-19.775-21.347 16.864 9.39 26.474 15.746 26.697 15.76 1.942 1.236 4.374 1.024 5.993-.581l.76-.716c1.473-2.152.928-5.007-1.224-6.48-.086-.05-.086-.05-.123-.187-.26-.15-19.182-12.576-50.703-28.58-16.661-18.742-36.85-42.175-56.893-67.258 1.928-9.74 4.27-20.397 7.286-31.82 14.11-54.439 5.603-91.104-4.015-112.246-.197-.46-.43-1.056-.676-1.429.35-.606.577-1.4.444-2.169l.05-.086 10.335-22.9c1.126-2.353-.002-5.198-2.354-6.325-2.268-.27-4.854 1.008-6.154 3.26zM98.34 123.907l8.17-1.75c2.307 2.603 4.652 5.342 7.306 8.145l-8.306 1.786c-2.344-2.74-4.689-5.478-7.17-8.18zm34.821 40.889c-6.687-8.018-13.497-16.222-20.53-24.44l8.528-1.773c.174.1.31.063.583-.01 9.186 9.691 19.533 20.168 30.623 30.96-6.442-1.642-12.798-3.233-19.204-4.737zm91.953 60.132c-12.193-11.08-24.929-22.822-37.478-34.686a726.269 726.269 0 0 1 35.566 12.798c.054 7.306.692 14.602 1.912 21.888zm46.788-11.438c-5.756-2.63-11.685-5.361-17.838-8.105l-4.407-1.967c-5.158-5.865-10.49-11.83-16.132-17.859.432-4.947 1.013-10.154 1.88-15.657 12.546 15.672 24.97 30.351 36.497 43.588z"/>
</svg>
