<svg height="512pt" viewBox="-42 0 512 512" width="512pt" xmlns="http://www.w3.org/2000/svg"><path d="m394.75 0h-332c-34.601562 0-62.75 28.148438-62.75 62.75v371c0 43.148438 35.101562 78.25 78.25 78.25h233.820312c4.144532 0 7.5-3.359375 7.5-7.5s-3.355468-7.5-7.5-7.5h-233.820312c-34.875 0-63.25-28.375-63.25-63.25v-330.328125c.363281.300781 11.980469 15.40625 33.433594 20.429687 17.546875 4.113282 23.46875.128907 363.566406 1.648438v308.25c0 34.875-28.375 63.25-63.25 63.25h-8.679688c-4.140624 0-7.5 3.359375-7.5 7.5s3.359376 7.5 7.5 7.5h8.679688c43.148438 0 78.25-35.101562 78.25-78.25v-401.5c0-17.78125-14.46875-32.25-32.25-32.25zm-332 110.5c-26.328125 0-47.75-21.421875-47.75-47.75s21.421875-47.75 47.75-47.75h332c9.511719 0 17.25 7.738281 17.25 17.25v78.25zm0 0"/><path d="m157.214844 217.875c-4.144532 0-7.5 3.359375-7.5 7.5v20.261719h-20.265625c-4.140625 0-7.5 3.359375-7.5 7.5 0 4.144531 3.359375 7.5 7.5 7.5h20.265625v20.261719c0 4.144531 3.355468 7.5 7.5 7.5 4.140625 0 7.5-3.355469 7.5-7.5v-20.261719h20.261718c4.140626 0 7.5-3.359375 7.5-7.5s-3.359374-7.5-7.5-7.5h-20.261718v-20.261719c0-4.140625-3.359375-7.5-7.5-7.5zm0 0"/><path d="m242.023438 260.636719h55.523437c4.144531 0 7.5-3.355469 7.5-7.5 0-4.140625-3.355469-7.5-7.5-7.5h-55.523437c-4.140626 0-7.5 3.359375-7.5 7.5 0 4.144531 3.359374 7.5 7.5 7.5zm0 0"/><path d="m93.429688 327.710938v76c0 14.21875 11.566406 25.785156 25.785156 25.785156h75.996094c7.140624 0 13.613281-2.917969 18.289062-7.625 4.675781 4.707031 11.148438 7.625 18.289062 7.625h75.996094c14.21875 0 25.785156-11.566406 25.785156-25.785156v-76c0-7.140626-2.917968-13.613282-7.621093-18.285157 4.703125-4.675781 7.621093-11.148437 7.621093-18.289062v-75.996094c0-14.21875-11.566406-25.789063-25.785156-25.789063h-75.996094c-7.140624 0-13.613281 2.917969-18.289062 7.625-4.675781-4.707031-11.148438-7.625-18.289062-7.625h-23.996094c-4.144532 0-7.5 3.359376-7.5 7.5 0 4.140626 3.355468 7.5 7.5 7.5h23.996094c5.949218 0 10.789062 4.839844 10.789062 10.789063v75.996094c0 5.941406-4.824219 10.773437-10.761719 10.789062-.101562 0-78.121093 0-76.046875 0-5.9375-.015625-10.765625-4.847656-10.765625-10.789062v-75.996094c0-5.949219 4.839844-10.789063 10.789063-10.789063h24c4.140625 0 7.5-3.359374 7.5-7.5 0-4.140624-3.359375-7.5-7.5-7.5h-24c-14.21875 0-25.789063 11.570313-25.789063 25.789063v75.996094c0 7.140625 2.917969 13.613281 7.625 18.289062-4.703125 4.671875-7.621093 11.144531-7.621093 18.285157zm225.140624 0v76c0 5.945312-4.835937 10.785156-10.785156 10.785156h-75.996094c-5.949218 0-10.789062-4.839844-10.789062-10.785156v-76c0-5.949219 4.839844-10.785157 10.789062-10.785157h75.996094c5.949219 0 10.785156 4.835938 10.785156 10.785157zm-86.78125-123.359376h75.996094c5.949219 0 10.785156 4.839844 10.785156 10.789063v75.996094c0 5.949219-4.835937 10.789062-10.785156 10.789062h-75.996094c-5.949218 0-10.789062-4.839843-10.789062-10.789062v-75.996094c0-5.949219 4.839844-10.789063 10.789062-10.789063zm-36.550781 112.574219c5.9375.011719 10.761719 4.847657 10.761719 10.785157v76c0 5.945312-4.839844 10.785156-10.789062 10.785156h-75.996094c-5.949219 0-10.785156-4.839844-10.785156-10.785156v-76c0-5.9375 4.824218-10.773438 10.761718-10.785157.285156 0 76.210938 0 76.046875 0zm0 0"/><path d="m137.582031 392.839844c5.265625 0 6.242188-4.03125 19.632813-16.523438 13.488281 12.582032 14.371094 16.523438 19.628906 16.523438 6.625 0 10.042969-8.066406 5.304688-12.800782l-14.328126-14.328124 14.328126-14.328126c2.929687-2.929687 2.929687-7.679687 0-10.605468-2.929688-2.929688-7.679688-2.929688-10.605469 0l-14.328125 14.328125-14.328125-14.328125c-2.929688-2.929688-7.679688-2.929688-10.605469 0-2.929688 2.925781-2.929688 7.675781 0 10.605468l14.328125 14.328126-14.328125 14.328124c-4.742188 4.738282-1.320312 12.800782 5.300781 12.800782zm0 0"/><path d="m269.785156 351.066406c4.144532 0 7.5-3.359375 7.5-7.5v-5.167968c0-4.140626-3.355468-7.5-7.5-7.5-4.140625 0-7.5 3.359374-7.5 7.5v5.167968c0 4.140625 3.359375 7.5 7.5 7.5zm0 0"/><path d="m269.785156 380.355469c-4.140625 0-7.5 3.355469-7.5 7.5v5.164062c0 4.144531 3.359375 7.5 7.5 7.5 4.144532 0 7.5-3.355469 7.5-7.5v-5.164062c0-4.144531-3.355468-7.5-7.5-7.5zm0 0"/><path d="m242.023438 373.210938h55.523437c4.144531 0 7.5-3.359376 7.5-7.5 0-4.144532-3.355469-7.5-7.5-7.5h-55.523437c-4.140626 0-7.5 3.355468-7.5 7.5 0 4.140624 3.359374 7.5 7.5 7.5zm0 0"/><path d="m369.746094 37.160156h-312.492188c-4.140625 0-7.5 3.359375-7.5 7.5 0 4.144532 3.359375 7.5 7.5 7.5h312.492188c4.140625 0 7.5-3.355468 7.5-7.5 0-4.140625-3.359375-7.5-7.5-7.5zm0 0"/><path d="m369.746094 73.339844h-312.492188c-4.140625 0-7.5 3.355468-7.5 7.5 0 4.140625 3.359375 7.5 7.5 7.5h312.492188c4.140625 0 7.5-3.359375 7.5-7.5 0-4.144532-3.359375-7.5-7.5-7.5zm0 0"/></svg>