<?xml version="1.0"?>
<svg xmlns="http://www.w3.org/2000/svg" viewBox="0 0 64 64" width="512" height="512"><g id="Robot_hand" data-name="Robot hand"><path d="M50,29a1,1,0,0,0,1-1V13a3,3,0,0,0-3-3H47a3,3,0,0,0-3,3V28a1,1,0,0,0,1,1h2v2H41V29h1a1,1,0,0,0,1-1V9a3,3,0,0,0-3-3H39a3,3,0,0,0-3,3V28a1,1,0,0,0,1,1h2v2H33V29h1a1,1,0,0,0,1-1V4a3,3,0,0,0-3-3H31a3,3,0,0,0-3,3V28a1,1,0,0,0,1,1h2v2H25V29h1a1,1,0,0,0,1-1V9a3,3,0,0,0-3-3H23a3,3,0,0,0-3,3V28a1,1,0,0,0,1,1h2v2H21a1,1,0,0,0-1,1V42.234l-2.593-1.556.621-.254a1,1,0,0,0,.548-1.3L13.66,27.085a3,3,0,0,0-3.911-1.643l-.927.378A3,3,0,0,0,7.18,29.731L12.1,41.767a1,1,0,0,0,.539.544,1.017,1.017,0,0,0,.387.078.992.992,0,0,0,.378-.075l1.789-.73a1,1,0,0,0,.3.273L20,44.566V51a5.006,5.006,0,0,0,5,5h1v6a1,1,0,0,0,1,1H42a1,1,0,0,0,1-1V56h.469a5.007,5.007,0,0,0,4.961-4.374l2.562-19.5A1,1,0,0,0,50,31H49V29ZM38,27V18h1a1,1,0,0,0,0-2H38V9a1,1,0,0,1,1-1h1a1,1,0,0,1,1,1V27Zm-8,0V19h1a1,1,0,0,0,0-2H30V4a1,1,0,0,1,1-1h1a1,1,0,0,1,1,1V27Zm-8,0V9a1,1,0,0,1,1-1h1a1,1,0,0,1,1,1v8H24a1,1,0,0,0,0,2h1v8ZM9.032,28.976a1,1,0,0,1,.547-1.3l.926-.378a1,1,0,0,1,1.3.547L16.347,38.95,13.57,40.085ZM41,61H28V56H41Zm5.446-9.628A3,3,0,0,1,43.469,54H25a3,3,0,0,1-3-3V33H48.86ZM46,27V13a1,1,0,0,1,1-1h1a1,1,0,0,1,1,1v5H48a1,1,0,0,0,0,2h1v7Z"/><path d="M24,36h7a1,1,0,0,0,0-2H24a1,1,0,0,0,0,2Z"/><path d="M34,36h1a1,1,0,0,0,0-2H34a1,1,0,0,0,0,2Z"/><path d="M31.555,48.168,29,46.465V45a.9.9,0,0,0-.035-.173,3,3,0,1,0-1.93,0A.9.9,0,0,0,27,45v2a1,1,0,0,0,.445.832L30,49.535V51a1,1,0,0,0,2,0V49A1,1,0,0,0,31.555,48.168ZM28,41a1,1,0,1,1-1,1A1,1,0,0,1,28,41Z"/><path d="M40,44.586l-3.707,3.707A1,1,0,0,0,36,49v2a1,1,0,0,0,2,0V49.414l3.707-3.707A1,1,0,0,0,42,45V42a.9.9,0,0,0-.035-.173,3,3,0,1,0-1.93,0A.9.9,0,0,0,40,42ZM41,38a1,1,0,1,1-1,1A1,1,0,0,1,41,38Z"/><path d="M34,52a1,1,0,0,0,1-1V42a1,1,0,0,0-2,0v9A1,1,0,0,0,34,52Z"/><path d="M43,44v4a1,1,0,0,0,2,0V44a1,1,0,0,0-2,0Z"/><path d="M25,48a1,1,0,0,0-1,1v1a1,1,0,0,0,2,0V49A1,1,0,0,0,25,48Z"/></g></svg>
